<svg xmlns="http://www.w3.org/2000/svg" data-name="Layer 1" viewBox="0 0 128 160" x="0px" y="0px"><title>miscellaneous 187_expandline</title><path d="M126,118H13.1152l100.2412-92.5303a2,2,0,0,0-2.7128-2.9394L10,115.4316V2A2,2,0,0,0,6,2V8H4a2,2,0,0,0,0,4H6v4H2a2,2,0,0,0,0,4H6v4H4a2,2,0,0,0,0,4H6v4H2a2,2,0,0,0,0,4H6v4.1152H4a2,2,0,0,0,0,4H6v3.9873H2a2,2,0,0,0,0,4H6v3.9873H4a2,2,0,0,0,0,4H6v3.9873H2a2,2,0,0,0,0,4H6v3.9874H4a2,2,0,0,0,0,4H6v3.9863H2a2,2,0,0,0,0,4H6v3.9883H4a2,2,0,0,0,0,4H6v3.9863H2a2,2,0,0,0,0,4H6v3.9873H4a2,2,0,0,0,0,4H6V112H2a2,2,0,0,0,0,4H6v4.0127H4a2,2,0,0,0,0,4H6V126a2,2,0,0,0,4,0v-4h4v4a2,2,0,0,0,4,0v-4h3.9873v2a2,2,0,1,0,4,0v-2h3.9868v4a2,2,0,1,0,4,0v-4h3.9873v2a2,2,0,1,0,4,0v-2h3.9873v4a2,2,0,1,0,4,0v-4H53.936v2a2,2,0,0,0,4,0v-2h3.98689v4a2,2,0,1,0,4,0v-4h3.9873v2a2,2,0,1,0,4,0v-2h3.9873v4a2,2,0,1,0,4,0v-4h3.9873v2a2,2,0,1,0,4,0v-2H94v4a2,2,0,0,0,4,0v-4h4v2a2,2,0,0,0,4,0v-2h4v4a2,2,0,0,0,4,0v-4h4v2a2,2,0,0,0,4,0v-2h4a2,2,0,0,0,0-4Z"/><path d="M14.8906,102.6641a2.01873,2.01873,0,0,0,2.7735-.5547l.2773-.416a2,2,0,1,0-3.3281-2.2188l-.2774.416A2,2,0,0,0,14.8906,102.6641Z"/><path d="M24.7681,84.2422l-.564.8467a1.99982,1.99982,0,0,0,3.3291,2.2168l.564-.8467a1.99982,1.99982,0,0,0-3.3291-2.2168Z"/><path d="M34.9238,69.0088l-.5639.8457a1.99993,1.99993,0,1,0,3.3281,2.2187l.564-.8457a2,2,0,1,0-3.3282-2.2187Z"/><path d="M39.9927,65.0117a2.01674,2.01674,0,0,0,2.7734-.5556l.564-.8467a1.99982,1.99982,0,0,0-3.3291-2.2168l-.564.8467A1.99929,1.99929,0,0,0,39.9927,65.0117Z"/><path d="M29.8462,76.625l-.564.8457a1.99993,1.99993,0,0,0,.5542,2.7734,2.02172,2.02172,0,0,0,2.774-.5546l.5639-.8457a2,2,0,1,0-3.3281-2.2188Z"/><path d="M70.45749,19.3125a2.01894,2.01894,0,0,0,2.7739-.5547l.564-.8457a1.99993,1.99993,0,1,0-3.3281-2.2187l-.564.8457A2,2,0,0,0,70.45749,19.3125Z"/><path d="M65.37989,26.9287a2.01987,2.01987,0,0,0,2.7739-.5547l.564-.8457a2,2,0,1,0-3.3282-2.2187l-.5639.8457A1.99986,1.99986,0,0,0,65.37989,26.9287Z"/><path d="M19.6821,95.4775a2.0177,2.0177,0,0,0,2.7735-.5556l.5639-.8467a1.99982,1.99982,0,0,0-3.3291-2.2168l-.5639.8467A1.99937,1.99937,0,0,0,19.6821,95.4775Z"/><path d="M75.53609,11.6963a2.01778,2.01778,0,0,0,2.7735-.5557l.5639-.8467a1.99982,1.99982,0,0,0-3.3291-2.2168l-.5639.8467A1.99947,1.99947,0,0,0,75.53609,11.6963Z"/><path d="M60.30319,34.5459a2.01789,2.01789,0,0,0,2.7735-.5557l.5639-.8466a1.99982,1.99982,0,0,0-3.3291-2.2168l-.5639.8466A1.99947,1.99947,0,0,0,60.30319,34.5459Z"/><path d="M55.22559,42.1621a2.017,2.017,0,0,0,2.77341-.5557l.564-.8466a1.99982,1.99982,0,0,0-3.32911-2.2168l-.564.8466A1.9994,1.9994,0,0,0,55.22559,42.1621Z"/><path d="M50.147,49.7783a2.019,2.019,0,0,0,2.77389-.5547l.564-.8457a2,2,0,1,0-3.3282-2.2187l-.5639.8457A1.99987,1.99987,0,0,0,50.147,49.7783Z"/><path d="M45.0703,57.3955a2.01947,2.01947,0,0,0,2.7735-.5557l.5639-.8466a1.99982,1.99982,0,0,0-3.3291-2.2168l-.564.8466A1.99949,1.99949,0,0,0,45.0703,57.3955Z"/><path d="M80.61329,4.0801a2.01936,2.01936,0,0,0,2.7734-.5547l.2774-.416A2,2,0,1,0,80.33589.8906l-.2773.416A1.9999,1.9999,0,0,0,80.61329,4.0801Z"/><path d="M27.5527,110.9873l-.4472.2236a2.00088,2.00088,0,0,0-.8946,2.6836,2.02774,2.02774,0,0,0,2.6836.8946l.4473-.2237a2.00023,2.00023,0,0,0-1.7891-3.5781Z"/><path d="M43.8877,102.8203l-.9072.4541a2,2,0,0,0-.8936,2.6836,2.02028,2.02028,0,0,0,2.6836.8926l.9072-.4541a1.99958,1.99958,0,1,0-1.79-3.5762Z"/><path d="M52.05759,98.7363l-.9077.4532a2.00012,2.00012,0,0,0-.8965,2.6826,2.02432,2.02432,0,0,0,2.68261.8955l.90779-.4531a1.99963,1.99963,0,1,0-1.7862-3.5782Z"/><path d="M60.22459,94.6523l-.9072.4532a1.99922,1.99922,0,0,0-.8955,2.6826,2.02429,2.02429,0,0,0,2.6826.8955l.9072-.4531a1.99983,1.99983,0,0,0-1.7871-3.5782Z"/><path d="M68.39109,90.5684l-.9077.4541a2.0003,2.0003,0,0,0-.8936,2.6836,2.024,2.024,0,0,0,2.6836.8945l.9078-.4541a2.00045,2.00045,0,0,0-1.7901-3.5781Z"/><path d="M109.23,70.1484l-.90771.4541a2.00033,2.00033,0,0,0-.8936,2.6836,2.02708,2.02708,0,0,0,2.6836.8946l.90771-.4541a2.00048,2.00048,0,0,0-1.79-3.5782Z"/><path d="M35.7202,106.9033l-.9077.4541a2.00033,2.00033,0,0,0-.8936,2.6836,2.02215,2.02215,0,0,0,2.6836.8945l.9078-.4541a2.00045,2.00045,0,0,0-1.7901-3.5781Z"/><path d="M117.38669,70.3008a4.08548,4.08548,0,0,0,1.79931-.6572,1.99983,1.99983,0,0,0-1.78711-3.5782l-.9072.4532a1.99922,1.99922,0,0,0-.8955,2.6826A2.02852,2.02852,0,0,0,117.38669,70.3008Z"/><path d="M101.062,74.2334l-.90721.4541a2,2,0,0,0-.8936,2.6836,2.02227,2.02227,0,0,0,2.6836.8926l.9073-.4541a1.9996,1.9996,0,1,0-1.79009-3.5762Z"/><path d="M76.55909,86.4844l-.9077.4541a2.00029,2.00029,0,0,0,.8965,3.789,4.23032,4.23032,0,0,0,1.8012-.665,2.00043,2.00043,0,0,0-1.79-3.5781Z"/><path d="M92.89449,78.3164l-.9077.4541a2.00018,2.00018,0,0,0-.8935,2.6836,2.02453,2.02453,0,0,0,2.6836.8945l.9077-.4541a2.00045,2.00045,0,0,0-1.7901-3.5781Z"/><path d="M84.72659,82.4014l-.9073.4541a1.99989,1.99989,0,0,0-.8935,2.6836,2.02366,2.02366,0,0,0,2.6836.8925l.9072-.4541a1.99954,1.99954,0,1,0-1.79-3.5761Z"/><path d="M125.55419,66.2236a6.98627,6.98627,0,0,0,1.3403-.4345,2.00025,2.00025,0,0,0-1.789-3.5782l-.4473.2237a2,2,0,0,0,.896,3.789Z"/><path d="M23,9H35a2,2,0,0,0,0-4H23a2,2,0,0,0,0,4Z"/><path d="M23,17H35a2,2,0,0,0,0-4H23a2,2,0,0,0,0,4Z"/><path d="M23,25H35a2,2,0,0,0,0-4H23a2,2,0,0,0,0,4Z"/><text x="0" y="143" fill="#000000" font-size="5px" font-weight="bold" font-family="'Helvetica Neue', Helvetica, Arial-Unicode, Arial, Sans-serif">Created by priyanka</text><text x="0" y="148" fill="#000000" font-size="5px" font-weight="bold" font-family="'Helvetica Neue', Helvetica, Arial-Unicode, Arial, Sans-serif">from the Noun Project</text></svg>